<?xml version="1.0" encoding="utf-8"?>
<!-- Generator: Adobe Illustrator 25.0.0, SVG Export Plug-In . SVG Version: 6.00 Build 0)  -->
<svg version="1.1" id="Ebene_1" xmlns="http://www.w3.org/2000/svg" xmlns:xlink="http://www.w3.org/1999/xlink" x="0px" y="0px"
	 viewBox="0 0 1180 225" style="enable-background:new 0 0 1180 225;" xml:space="preserve">
<style type="text/css">
	.st0{fill:#1D1D1B;}
</style>
<g>
	<g>
		<path class="st0" d="M113.48,202.04L113.48,202.04c-10.36,0-18.83-8.47-18.83-18.83V41.12c0-10.36,8.47-18.83,18.83-18.83h0
			c10.36,0,18.83,8.47,18.83,18.83v142.1C132.3,193.57,123.83,202.04,113.48,202.04z"/>
		<path class="st0" d="M68.01,202.04L68.01,202.04c-10.36,0-18.83-8.47-18.83-18.83V93.32c0-10.36,8.47-18.83,18.83-18.83h0
			c10.36,0,18.83,8.47,18.83,18.83v89.89C86.84,193.57,78.36,202.04,68.01,202.04z"/>
		<path class="st0" d="M217.88,202.04L217.88,202.04c-10.36,0-18.83-8.47-18.83-18.83V76.29c0-10.36,8.47-18.83,18.83-18.83h0
			c10.36,0,18.83,8.47,18.83,18.83v106.92C236.71,193.57,228.24,202.04,217.88,202.04z"/>
		<path class="st0" d="M172.42,202.04L172.42,202.04c-10.36,0-18.83-8.47-18.83-18.83V93.32c0-10.36,8.47-18.83,18.83-18.83h0
			c10.36,0,18.83,8.47,18.83,18.83v89.89C191.24,193.57,182.77,202.04,172.42,202.04z"/>
		<path class="st0" d="M322.29,202.04L322.29,202.04c-10.36,0-18.83-8.47-18.83-18.83V93.55c0-10.36,8.47-18.83,18.83-18.83h0
			c10.36,0,18.83,8.47,18.83,18.83v89.66C341.12,193.57,332.65,202.04,322.29,202.04z"/>
		<path class="st0" d="M276.82,202.04L276.82,202.04c-10.36,0-18.83-8.47-18.83-18.83V93.32c0-10.36,8.47-18.83,18.83-18.83h0
			c10.36,0,18.83,8.47,18.83,18.83v89.89C295.65,193.57,287.18,202.04,276.82,202.04z"/>
		<path class="st0" d="M485.83,138.06L485.83,138.06c-10.36,0-18.83-8.47-18.83-18.83v-26c0-10.36,8.47-18.83,18.83-18.83h0
			c10.36,0,18.83,8.47,18.83,18.83v26C504.66,129.59,496.19,138.06,485.83,138.06z"/>
		<path class="st0" d="M485.83,201.72L485.83,201.72c-10.36,0-18.83-8.47-18.83-18.83v0c0-10.36,8.47-18.83,18.83-18.83h0
			c10.36,0,18.83,8.47,18.83,18.83v0C504.66,193.25,496.19,201.72,485.83,201.72z"/>
		<path class="st0" d="M440.36,201.72L440.36,201.72c-10.36,0-18.83-8.47-18.83-18.83V93c0-10.36,8.47-18.83,18.83-18.83h0
			c10.36,0,18.83,8.47,18.83,18.83v89.89C459.19,193.25,450.72,201.72,440.36,201.72z"/>
		<path class="st0" d="M590.24,202.04L590.24,202.04c-10.36,0-18.83-8.47-18.83-18.83v0c0-10.36,8.47-18.83,18.83-18.83l0,0
			c10.36,0,18.83,8.47,18.83,18.83v0C609.07,193.57,600.59,202.04,590.24,202.04z"/>
		<path class="st0" d="M544.77,202.04L544.77,202.04c-10.36,0-18.83-8.47-18.83-18.83V41.12c0-10.36,8.47-18.83,18.83-18.83l0,0
			c10.36,0,18.83,8.47,18.83,18.83v142.1C563.6,193.57,555.13,202.04,544.77,202.04z"/>
		<path class="st0" d="M381.23,202.15L381.23,202.15c-10.36,0-18.83-8.47-18.83-18.83V93.43c0-10.36,8.47-18.83,18.83-18.83h0
			c10.36,0,18.83,8.47,18.83,18.83v89.89C400.06,193.68,391.59,202.15,381.23,202.15z"/>
		<path class="st0" d="M381.42,62.38L381.42,62.38c-10.36,0-18.83-8.47-18.83-18.83v0c0-10.36,8.47-18.83,18.83-18.83h0
			c10.36,0,18.83,8.47,18.83,18.83v0C400.25,53.9,391.78,62.38,381.42,62.38z"/>
	</g>
	<path class="st0" d="M785.3,202.04L785.3,202.04c-10.36,0-18.83-8.47-18.83-18.83v-34.63c0-10.36,8.47-18.83,18.83-18.83h0
		c10.36,0,18.83,8.47,18.83,18.83v34.63C804.13,193.57,795.66,202.04,785.3,202.04z"/>
	<path class="st0" d="M760.6,120.76L760.6,120.76c-10.36,0-18.83-8.47-18.83-18.83V67.3c0-10.36,8.47-18.83,18.83-18.83l0,0
		c10.36,0,18.83,8.47,18.83,18.83v34.63C779.43,112.29,770.96,120.76,760.6,120.76z"/>
	<path class="st0" d="M716.1,202.04L716.1,202.04c-10.36,0-18.83-8.47-18.83-18.83V41.12c0-10.36,8.47-18.83,18.83-18.83h0
		c10.36,0,18.83,8.47,18.83,18.83v142.1C734.92,193.57,726.45,202.04,716.1,202.04z"/>
	<path class="st0" d="M844.3,202.04L844.3,202.04c-10.36,0-18.83-8.47-18.83-18.83V41.12c0-10.36,8.47-18.83,18.83-18.83h0
		c10.36,0,18.83,8.47,18.83,18.83v142.1C863.13,193.57,854.66,202.04,844.3,202.04z"/>
	<path class="st0" d="M948.71,138.49L948.71,138.49c-10.36,0-18.83-8.47-18.83-18.83v-26c0-10.36,8.47-18.83,18.83-18.83h0
		c10.36,0,18.83,8.47,18.83,18.83v26C967.54,130.02,959.07,138.49,948.71,138.49z"/>
	<path class="st0" d="M948.71,202.15L948.71,202.15c-10.36,0-18.83-8.47-18.83-18.83v0c0-10.36,8.47-18.83,18.83-18.83h0
		c10.36,0,18.83,8.47,18.83,18.83v0C967.54,193.68,959.07,202.15,948.71,202.15z"/>
	<path class="st0" d="M903.24,202.15L903.24,202.15c-10.36,0-18.83-8.47-18.83-18.83V93.43c0-10.36,8.47-18.83,18.83-18.83h0
		c10.36,0,18.83,8.47,18.83,18.83v89.89C922.07,193.68,913.6,202.15,903.24,202.15z"/>
	<path class="st0" d="M1007.64,202.71L1007.64,202.71c-10.36,0-18.83-8.47-18.83-18.83V93.99c0-10.36,8.47-18.83,18.83-18.83l0,0
		c10.36,0,18.83,8.47,18.83,18.83v89.89C1026.46,194.24,1017.99,202.71,1007.64,202.71z"/>
	<path class="st0" d="M1007.64,60.62L1007.64,60.62c-10.36,0-18.83-8.47-18.83-18.83v0c0-10.36,8.47-18.83,18.83-18.83l0,0
		c10.36,0,18.83,8.47,18.83,18.83v0C1026.46,52.14,1017.99,60.62,1007.64,60.62z"/>
	<path class="st0" d="M1111.99,202.71L1111.99,202.71c-10.36,0-18.83-8.47-18.83-18.83V94.22c0-10.36,8.47-18.83,18.83-18.83l0,0
		c10.36,0,18.83,8.47,18.83,18.83v89.66C1130.82,194.24,1122.35,202.71,1111.99,202.71z"/>
	<path class="st0" d="M1066.52,202.71L1066.52,202.71c-10.36,0-18.83-8.47-18.83-18.83V93.99c0-10.36,8.47-18.83,18.83-18.83l0,0
		c10.36,0,18.83,8.47,18.83,18.83v89.89C1085.35,194.24,1076.88,202.71,1066.52,202.71z"/>
</g>
</svg>
